<svg width="130" height="120" viewBox="0 0 130 120" fill="none" xmlns="http://www.w3.org/2000/svg">
<mask id="mask0_15_57" style="mask-type:luminance" maskUnits="userSpaceOnUse" x="12" y="46" width="118" height="74">
<path d="M12.3571 46.3684H129.605V119.239H12.3571V46.3684Z" fill="white"/>
</mask>
<g mask="url(#mask0_15_57)">
<path fill-rule="evenodd" clip-rule="evenodd" d="M64.8178 59.1803C63.1856 58.387 61.4214 57.7274 59.5214 57.1998C59.1468 57.0958 58.7451 57.1292 58.3938 57.2908C58.3938 57.2908 53.8602 59.3141 49.7846 65.9169C49.5963 65.8073 49.3945 65.6995 49.181 65.5955C46.9938 64.5328 43.1802 63.6745 38.2176 63.6745C33.2551 63.6745 29.4434 64.5328 27.2562 65.5955C27.0427 65.6995 26.8408 65.8073 26.6526 65.9169C22.577 59.3141 18.0433 57.2908 18.0433 57.2908C17.4262 57.0066 16.6887 57.1329 16.2132 57.6067C16.2132 57.6067 12.6383 60.8951 12.6383 74.0023V117.683C12.6383 118.524 13.3486 119.206 14.2259 119.206H121.465C122.342 119.206 123.054 118.524 123.054 117.683V100.769C123.054 99.9288 122.342 99.247 121.465 99.247C120.59 99.247 119.877 99.9288 119.877 100.769V116.161H15.8134V74.0023C15.8134 66.2383 17.0691 62.4148 17.8628 60.7725C19.4368 61.8798 22.2994 64.3544 24.8127 69.014C25.0786 69.51 25.6065 69.824 26.1868 69.837C26.769 69.85 27.3105 69.5565 27.5997 69.0734C27.8539 68.648 28.5545 68.321 29.5152 67.9643C31.4987 67.2267 34.4933 66.7195 38.2176 66.7195C41.9439 66.7195 44.9385 67.2267 46.922 67.9643C47.8826 68.321 48.5832 68.648 48.8375 69.0734C49.1267 69.5565 49.6681 69.85 50.2484 69.837C50.8307 69.824 51.3585 69.51 51.6244 69.014C54.5802 63.5314 58.0212 61.0735 59.2788 60.3117C60.5791 60.7019 61.8018 61.1663 62.9527 61.7033C57.1847 70.112 53.6292 81.4208 53.6292 93.8592C53.6292 101.079 59.7407 106.939 67.267 106.939C74.7952 106.939 80.9067 101.079 80.9067 93.8592C80.9067 77.6958 76.7651 66.6433 67.5814 60.7297C68.3558 59.7748 69.169 58.8719 70.0132 58.0247C75.2086 52.7967 81.6015 49.6717 88.5339 49.6717C99.3343 49.6717 108.213 56.7391 108.213 65.6029C108.213 66.9201 109.108 68.2968 111.02 69.3911C113.975 71.0818 119.701 72.334 126.414 72.5067V76.2615V76.4064C126.414 85.1978 118.969 92.3357 109.801 92.3357C100.633 92.3357 93.1898 85.1978 93.1898 76.4064C93.1898 75.5648 92.4776 74.8829 91.6003 74.8829C90.7251 74.8829 90.0128 75.5648 90.0128 76.4064C90.0128 86.8792 98.8802 95.3826 109.801 95.3826C120.723 95.3826 129.589 86.8792 129.589 76.4064C129.589 76.373 129.589 76.3414 129.589 76.3098V71.0037C129.589 70.1621 128.879 69.4821 128.001 69.4821C122.23 69.4821 117.106 68.674 113.933 67.3883C113.03 67.0242 112.303 66.6322 111.81 66.1937C111.586 65.9931 111.388 65.824 111.388 65.6029C111.388 55.1989 101.211 46.6267 88.5339 46.6267C80.7553 46.6267 73.5454 50.0563 67.7134 55.9235C66.7042 56.9378 65.7377 58.0247 64.8178 59.1803ZM65.7105 63.2174C60.1793 71.1895 56.8043 81.9874 56.8043 93.8592C56.8043 99.3974 61.4932 103.893 67.267 103.893C73.0427 103.893 77.7297 99.3974 77.7297 93.8592C77.7297 78.9442 74.1626 68.6387 65.7105 63.2174Z" fill="#FFFAEB"/>
</g>
<mask id="mask1_15_57" style="mask-type:luminance" maskUnits="userSpaceOnUse" x="119" y="68" width="11" height="11">
<path d="M119.674 68.7223H129.605V78.7102H119.674V68.7223Z" fill="white"/>
</mask>
<g mask="url(#mask1_15_57)">
<path fill-rule="evenodd" clip-rule="evenodd" d="M128.002 75.44C125.271 75.44 123.055 73.3146 123.055 70.6951C123.055 69.8553 122.342 69.1735 121.465 69.1735C120.59 69.1735 119.878 69.8553 119.878 70.6951C119.878 74.996 123.518 78.4869 128.002 78.4869C128.879 78.4869 129.589 77.8032 129.589 76.9635C129.589 76.1237 128.879 75.44 128.002 75.44Z" fill="#FFFAEB"/>
</g>
<path fill-rule="evenodd" clip-rule="evenodd" d="M44.2594 88.1742C44.2594 89.4729 43.159 90.5281 41.8044 90.5281C40.4497 90.5281 39.3493 89.4729 39.3493 88.1742C39.3493 87.3345 38.637 86.6508 37.7617 86.6508C36.8845 86.6508 36.1742 87.3345 36.1742 88.1742C36.1742 91.1542 38.6972 93.5732 41.8044 93.5732C44.9115 93.5732 47.4345 91.1542 47.4345 88.1742C47.4345 87.3345 46.7223 86.6508 45.847 86.6508C44.9698 86.6508 44.2594 87.3345 44.2594 88.1742Z" fill="#FFFAEB"/>
<path fill-rule="evenodd" clip-rule="evenodd" d="M36.1741 88.1742C36.1741 89.4729 35.0737 90.5281 33.719 90.5281C32.3644 90.5281 31.2639 89.4729 31.2639 88.1742C31.2639 87.3345 30.5517 86.6508 29.6764 86.6508C28.7992 86.6508 28.0869 87.3345 28.0869 88.1742C28.0869 91.1542 30.6099 93.5732 33.719 93.5732C36.8262 93.5732 39.3492 91.1542 39.3492 88.1742C39.3492 87.3345 38.6369 86.6508 37.7616 86.6508C36.8844 86.6508 36.1741 87.3345 36.1741 88.1742Z" fill="#FFFAEB"/>
<path fill-rule="evenodd" clip-rule="evenodd" d="M57.7809 36.916C61.3499 42.8444 67.2615 43.8142 71.9329 42.7274C72.2279 42.6586 72.4977 42.51 72.7073 42.2982C76.026 38.9615 78.1046 33.5681 74.5355 27.6397C72.9809 25.0591 69.5361 24.1729 66.8442 25.6629C65.7496 26.2704 65.0199 27.0136 64.5871 27.8998C64.4163 28.2527 64.2902 28.6355 64.2145 29.0498C63.8031 28.9049 63.3955 28.8175 62.9899 28.7841C61.9729 28.7005 60.9365 28.9346 59.842 29.5402C57.1501 31.0303 56.2263 34.3354 57.7809 36.916ZM60.5309 35.3944C63.1024 39.6637 67.2867 40.5165 70.7258 39.8644C73.0333 37.334 74.3569 33.4325 71.7854 29.1631C71.1081 28.0372 69.606 27.6508 68.4318 28.301C67.9796 28.5519 67.6438 28.825 67.4653 29.191C67.1412 29.8505 67.2945 30.6921 67.6691 31.8124C67.9 32.4942 67.6011 33.2392 66.9529 33.5978C66.3047 33.9564 65.4838 33.8319 64.9811 33.3006C64.1582 32.4274 63.4751 31.8812 62.7162 31.8198C62.297 31.7845 61.8817 31.9276 61.4295 32.1784C60.2573 32.8287 59.8536 34.2685 60.5309 35.3944Z" fill="#FFFAEB"/>
<path fill-rule="evenodd" clip-rule="evenodd" d="M120.526 90.8737C121.124 91.8658 120.769 93.1384 119.734 93.7106C118.698 94.2847 117.372 93.9447 116.774 92.9507C116.336 92.2225 115.364 91.9735 114.605 92.3934C113.846 92.8133 113.586 93.7459 114.022 94.4742C115.497 96.9229 118.768 97.7626 121.322 96.3488C123.874 94.9349 124.751 91.7989 123.276 89.3502C122.839 88.6219 121.867 88.373 121.108 88.7928C120.349 89.2127 120.087 90.1454 120.526 90.8737Z" fill="#FFFAEB"/>
<mask id="mask2_15_57" style="mask-type:luminance" maskUnits="userSpaceOnUse" x="12" y="0" width="112" height="66">
<path d="M12.3571 0H123.152V65.8687H12.3571V0Z" fill="white"/>
</mask>
<g mask="url(#mask2_15_57)">
<path fill-rule="evenodd" clip-rule="evenodd" d="M123.053 64.2539V36.765C123.053 36.2522 122.785 35.7748 122.338 35.4924L66.5607 0.317446C66.0134 -0.0281158 65.3011 -0.0169692 64.7674 0.34903L13.306 35.5258C12.5918 36.0126 12.4249 36.9656 12.9334 37.6493C13.4419 38.333 14.4336 38.4928 15.1478 38.0061L65.7242 3.43494L119.877 37.5862V64.2539C119.877 65.0937 120.59 65.7755 121.465 65.7755C122.342 65.7755 123.053 65.0937 123.053 64.2539Z" fill="#FFFAEB"/>
</g>
<path fill-rule="evenodd" clip-rule="evenodd" d="M12.6385 36.7652V53.8985C12.6385 54.7401 13.3508 55.4219 14.2261 55.4219C15.1033 55.4219 15.8136 54.7401 15.8136 53.8985V36.7652C15.8136 35.9255 15.1033 35.2437 14.2261 35.2437C13.3508 35.2437 12.6385 35.9255 12.6385 36.7652Z" fill="#FFFAEB"/>
<path fill-rule="evenodd" clip-rule="evenodd" d="M20.3917 81.1999L1.7565 79.3123C0.885095 79.2231 0.101024 79.8306 0.00980856 80.6667C-0.0833483 81.5008 0.551282 82.2514 1.42269 82.3406L20.0579 84.2282C20.9293 84.3174 21.7115 83.7098 21.8046 82.8738C21.8958 82.0378 21.2632 81.289 20.3917 81.1999Z" fill="#FFFAEB"/>
<path fill-rule="evenodd" clip-rule="evenodd" d="M19.7767 88.8057L1.14149 94.0523C0.301134 94.2883 -0.182116 95.1355 0.0643607 95.9418C0.312779 96.7481 1.19583 97.2107 2.03618 96.9748L20.6714 91.7282C21.5118 91.4922 21.995 90.645 21.7486 89.8387C21.5021 89.0324 20.619 88.5698 19.7767 88.8057Z" fill="#FFFAEB"/>
</svg>
