<svg xmlns="http://www.w3.org/2000/svg" xmlns:xlink="http://www.w3.org/1999/xlink" width="600" zoomAndPan="magnify" viewBox="0 0 450 374.999991" height="500" preserveAspectRatio="xMidYMid meet" version="1.0"><defs><g/><clipPath id="c40b28f1a8"><path d="M 217 125 L 232 125 L 232 141 L 217 141 Z M 217 125 " clip-rule="nonzero"/></clipPath><clipPath id="7b5f0ff823"><path d="M 212.464844 127.953125 L 226.59375 122.5625 L 231.386719 135.121094 L 217.257812 140.511719 Z M 212.464844 127.953125 " clip-rule="nonzero"/></clipPath><clipPath id="727a10f3d0"><path d="M 212.464844 127.953125 L 226.59375 122.5625 L 231.386719 135.121094 L 217.257812 140.511719 Z M 212.464844 127.953125 " clip-rule="nonzero"/></clipPath><clipPath id="87a88583fa"><path d="M 245 120 L 261 120 L 261 136 L 245 136 Z M 245 120 " clip-rule="nonzero"/></clipPath><clipPath id="07d3f1019f"><path d="M 247.289062 119.691406 L 262.210938 122.136719 L 260.035156 135.402344 L 245.113281 132.953125 Z M 247.289062 119.691406 " clip-rule="nonzero"/></clipPath><clipPath id="2780688ed6"><path d="M 247.289062 119.691406 L 262.210938 122.136719 L 260.035156 135.402344 L 245.113281 132.953125 Z M 247.289062 119.691406 " clip-rule="nonzero"/></clipPath><clipPath id="519b3e24f9"><path d="M 213 125 L 228 125 L 228 141 L 213 141 Z M 213 125 " clip-rule="nonzero"/></clipPath><clipPath id="9a99de2007"><path d="M 208.46875 127.953125 L 222.597656 122.5625 L 227.386719 135.121094 L 213.261719 140.511719 Z M 208.46875 127.953125 " clip-rule="nonzero"/></clipPath><clipPath id="5a092323a3"><path d="M 208.46875 127.953125 L 222.597656 122.5625 L 227.386719 135.121094 L 213.261719 140.511719 Z M 208.46875 127.953125 " clip-rule="nonzero"/></clipPath><clipPath id="549c8f4ad6"><path d="M 241 120 L 257 120 L 257 136 L 241 136 Z M 241 120 " clip-rule="nonzero"/></clipPath><clipPath id="b0d12a6cef"><path d="M 243.960938 119.691406 L 258.882812 122.136719 L 256.707031 135.402344 L 241.785156 132.953125 Z M 243.960938 119.691406 " clip-rule="nonzero"/></clipPath><clipPath id="032b13dc44"><path d="M 243.960938 119.691406 L 258.882812 122.136719 L 256.707031 135.402344 L 241.785156 132.953125 Z M 243.960938 119.691406 " clip-rule="nonzero"/></clipPath></defs><g clip-path="url(#c40b28f1a8)"><g clip-path="url(#7b5f0ff823)"><g clip-path="url(#727a10f3d0)"><path fill="#000000" d="M 217.179688 140.304688 L 219.597656 125.234375 L 231.441406 134.863281 Z M 217.179688 140.304688 " fill-opacity="1" fill-rule="nonzero"/></g></g></g><g clip-path="url(#87a88583fa)"><g clip-path="url(#07d3f1019f)"><g clip-path="url(#2780688ed6)"><path fill="#000000" d="M 245.148438 132.734375 L 254.820312 120.925781 L 260.210938 135.203125 Z M 245.148438 132.734375 " fill-opacity="1" fill-rule="nonzero"/></g></g></g><g fill="#000000" fill-opacity="1"><g transform="translate(22.989425, 221.283835)"><g><path d="M 6.21875 -85.59375 L 37.453125 -85.59375 C 46.171875 -85.59375 53.226562 -83.34375 58.625 -78.84375 C 64.019531 -74.351562 66.71875 -67.816406 66.71875 -59.234375 C 66.71875 -50.660156 63.984375 -43.9375 58.515625 -39.0625 C 53.046875 -34.1875 46.023438 -31.75 37.453125 -31.75 L 25.734375 -31.75 L 25.734375 0 L 6.21875 0 Z M 25.734375 -47.3125 L 31.234375 -47.3125 C 35.585938 -47.3125 39.164062 -48.191406 41.96875 -49.953125 C 44.769531 -51.710938 46.171875 -54.601562 46.171875 -58.625 C 46.171875 -62.695312 44.769531 -65.613281 41.96875 -67.375 C 39.164062 -69.144531 35.585938 -70.03125 31.234375 -70.03125 L 25.734375 -70.03125 Z M 25.734375 -47.3125 "/></g></g></g><g fill="#000000" fill-opacity="1"><g transform="translate(86.900748, 221.283835)"><g><path d="M 60.078125 -24.0625 L 21.46875 -24.0625 C 21.46875 -20.332031 22.675781 -17.566406 25.09375 -15.765625 C 27.519531 -13.972656 30.15625 -13.078125 33 -13.078125 C 35.96875 -13.078125 38.316406 -13.472656 40.046875 -14.265625 C 41.773438 -15.054688 43.75 -16.628906 45.96875 -18.984375 L 59.234375 -12.34375 C 53.703125 -3.070312 44.503906 1.5625 31.640625 1.5625 C 23.617188 1.5625 16.738281 -1.1875 11 -6.6875 C 5.257812 -12.1875 2.390625 -18.8125 2.390625 -26.5625 C 2.390625 -34.3125 5.257812 -40.953125 11 -46.484375 C 16.738281 -52.015625 23.617188 -54.78125 31.640625 -54.78125 C 40.078125 -54.78125 46.941406 -52.34375 52.234375 -47.46875 C 57.523438 -42.59375 60.171875 -35.625 60.171875 -26.5625 C 60.171875 -25.3125 60.140625 -24.476562 60.078125 -24.0625 Z M 22 -34.234375 L 42.21875 -34.234375 C 41.8125 -37.003906 40.722656 -39.128906 38.953125 -40.609375 C 37.191406 -42.097656 34.925781 -42.84375 32.15625 -42.84375 C 29.113281 -42.84375 26.691406 -42.046875 24.890625 -40.453125 C 23.097656 -38.867188 22.132812 -36.796875 22 -34.234375 Z M 22 -34.234375 "/></g></g></g><g fill="#000000" fill-opacity="1"><g transform="translate(144.275661, 221.283835)"><g><path d="M 9.34375 -53.21875 L 9.34375 -73.046875 L 27.703125 -73.046875 L 27.703125 -53.21875 L 38.90625 -53.21875 L 38.90625 -39.21875 L 27.703125 -39.21875 L 27.703125 -22.3125 C 27.703125 -17.394531 29.082031 -14.9375 31.84375 -14.9375 C 32.539062 -14.9375 33.269531 -15.070312 34.03125 -15.34375 C 34.789062 -15.625 35.378906 -15.90625 35.796875 -16.1875 L 36.421875 -16.59375 L 40.984375 -1.765625 C 37.035156 0.453125 32.539062 1.5625 27.5 1.5625 C 24.039062 1.5625 21.066406 0.957031 18.578125 -0.25 C 16.085938 -1.46875 14.203125 -3.097656 12.921875 -5.140625 C 11.640625 -7.179688 10.722656 -9.320312 10.171875 -11.5625 C 9.617188 -13.8125 9.34375 -16.21875 9.34375 -18.78125 L 9.34375 -39.21875 L 1.65625 -39.21875 L 1.65625 -53.21875 Z M 9.34375 -53.21875 "/></g></g></g><g fill="#000000" fill-opacity="1"><g transform="translate(180.070065, 221.283835)"><g/></g></g><g fill="#000000" fill-opacity="1"><g transform="translate(203.206643, 221.283835)"><g><path d="M 51.765625 -17.640625 C 54.742188 -17.640625 57.632812 -18.085938 60.4375 -18.984375 C 63.238281 -19.878906 65.296875 -20.742188 66.609375 -21.578125 L 68.578125 -22.921875 L 76.875 -6.328125 C 76.601562 -6.117188 76.222656 -5.84375 75.734375 -5.5 C 75.253906 -5.15625 74.128906 -4.515625 72.359375 -3.578125 C 70.597656 -2.640625 68.710938 -1.828125 66.703125 -1.140625 C 64.703125 -0.453125 62.078125 0.164062 58.828125 0.71875 C 55.578125 1.28125 52.222656 1.5625 48.765625 1.5625 C 40.804688 1.5625 33.265625 -0.390625 26.140625 -4.296875 C 19.015625 -8.210938 13.273438 -13.59375 8.921875 -20.4375 C 4.566406 -27.28125 2.390625 -34.679688 2.390625 -42.640625 C 2.390625 -48.660156 3.664062 -54.4375 6.21875 -59.96875 C 8.78125 -65.5 12.1875 -70.234375 16.4375 -74.171875 C 20.695312 -78.117188 25.660156 -81.269531 31.328125 -83.625 C 37.003906 -85.976562 42.816406 -87.15625 48.765625 -87.15625 C 54.296875 -87.15625 59.394531 -86.492188 64.0625 -85.171875 C 68.726562 -83.859375 72.03125 -82.546875 73.96875 -81.234375 L 76.875 -79.265625 L 68.578125 -62.671875 C 68.097656 -63.078125 67.375 -63.570312 66.40625 -64.15625 C 65.4375 -64.75 63.5 -65.53125 60.59375 -66.5 C 57.6875 -67.46875 54.742188 -67.953125 51.765625 -67.953125 C 47.066406 -67.953125 42.847656 -67.191406 39.109375 -65.671875 C 35.378906 -64.148438 32.421875 -62.144531 30.234375 -59.65625 C 28.054688 -57.164062 26.394531 -54.484375 25.25 -51.609375 C 24.113281 -48.742188 23.546875 -45.820312 23.546875 -42.84375 C 23.546875 -36.34375 25.984375 -30.515625 30.859375 -25.359375 C 35.742188 -20.210938 42.710938 -17.640625 51.765625 -17.640625 Z M 51.765625 -17.640625 "/></g></g></g><g fill="#000000" fill-opacity="1"><g transform="translate(276.14443, 221.283835)"><g><path d="M 9.859375 -6.578125 C 4.878906 -12.015625 2.390625 -18.675781 2.390625 -26.5625 C 2.390625 -34.445312 4.878906 -41.117188 9.859375 -46.578125 C 14.835938 -52.046875 21.164062 -54.78125 28.84375 -54.78125 C 35.894531 -54.78125 41.703125 -52.566406 46.265625 -48.140625 L 46.265625 -53.21875 L 64.640625 -53.21875 L 64.640625 0 L 46.484375 0 L 46.484375 -6.015625 L 46.265625 -6.015625 C 41.703125 -0.960938 35.894531 1.5625 28.84375 1.5625 C 21.164062 1.5625 14.835938 -1.148438 9.859375 -6.578125 Z M 25.46875 -35.578125 C 23.082031 -33.234375 21.890625 -30.226562 21.890625 -26.5625 C 21.890625 -22.894531 23.03125 -19.898438 25.3125 -17.578125 C 27.59375 -15.265625 30.601562 -14.109375 34.34375 -14.109375 C 37.9375 -14.109375 40.890625 -15.285156 43.203125 -17.640625 C 45.523438 -19.992188 46.6875 -22.96875 46.6875 -26.5625 C 46.6875 -30.226562 45.492188 -33.234375 43.109375 -35.578125 C 40.722656 -37.929688 37.800781 -39.109375 34.34375 -39.109375 C 30.8125 -39.109375 27.851562 -37.929688 25.46875 -35.578125 Z M 25.46875 -35.578125 "/></g></g></g><g fill="#000000" fill-opacity="1"><g transform="translate(341.819533, 221.283835)"><g><path d="M 6.21875 0 L 6.21875 -53.21875 L 24.59375 -53.21875 L 24.59375 -45.546875 L 24.796875 -45.546875 C 24.929688 -45.828125 25.15625 -46.171875 25.46875 -46.578125 C 25.78125 -46.992188 26.453125 -47.71875 27.484375 -48.75 C 28.523438 -49.789062 29.632812 -50.726562 30.8125 -51.5625 C 31.988281 -52.394531 33.507812 -53.140625 35.375 -53.796875 C 37.25 -54.453125 39.148438 -54.78125 41.078125 -54.78125 C 43.085938 -54.78125 45.0625 -54.503906 47 -53.953125 C 48.9375 -53.398438 50.351562 -52.847656 51.25 -52.296875 L 52.703125 -51.453125 L 45.03125 -35.890625 C 42.75 -37.828125 39.566406 -38.796875 35.484375 -38.796875 C 33.265625 -38.796875 31.359375 -38.3125 29.765625 -37.34375 C 28.179688 -36.375 27.0625 -35.195312 26.40625 -33.8125 C 25.75 -32.4375 25.28125 -31.265625 25 -30.296875 C 24.726562 -29.328125 24.59375 -28.566406 24.59375 -28.015625 L 24.59375 0 Z M 6.21875 0 "/></g></g></g><g fill="#000000" fill-opacity="1"><g transform="translate(388.300444, 221.283835)"><g><path d="M 60.078125 -24.0625 L 21.46875 -24.0625 C 21.46875 -20.332031 22.675781 -17.566406 25.09375 -15.765625 C 27.519531 -13.972656 30.15625 -13.078125 33 -13.078125 C 35.96875 -13.078125 38.316406 -13.472656 40.046875 -14.265625 C 41.773438 -15.054688 43.75 -16.628906 45.96875 -18.984375 L 59.234375 -12.34375 C 53.703125 -3.070312 44.503906 1.5625 31.640625 1.5625 C 23.617188 1.5625 16.738281 -1.1875 11 -6.6875 C 5.257812 -12.1875 2.390625 -18.8125 2.390625 -26.5625 C 2.390625 -34.3125 5.257812 -40.953125 11 -46.484375 C 16.738281 -52.015625 23.617188 -54.78125 31.640625 -54.78125 C 40.078125 -54.78125 46.941406 -52.34375 52.234375 -47.46875 C 57.523438 -42.59375 60.171875 -35.625 60.171875 -26.5625 C 60.171875 -25.3125 60.140625 -24.476562 60.078125 -24.0625 Z M 22 -34.234375 L 42.21875 -34.234375 C 41.8125 -37.003906 40.722656 -39.128906 38.953125 -40.609375 C 37.191406 -42.097656 34.925781 -42.84375 32.15625 -42.84375 C 29.113281 -42.84375 26.691406 -42.046875 24.890625 -40.453125 C 23.097656 -38.867188 22.132812 -36.796875 22 -34.234375 Z M 22 -34.234375 "/></g></g></g><g fill="#fffaeb" fill-opacity="1"><g transform="translate(13.519354, 217.525695)"><g><path d="M 6.21875 -85.59375 L 37.453125 -85.59375 C 46.171875 -85.59375 53.226562 -83.34375 58.625 -78.84375 C 64.019531 -74.351562 66.71875 -67.816406 66.71875 -59.234375 C 66.71875 -50.660156 63.984375 -43.9375 58.515625 -39.0625 C 53.046875 -34.1875 46.023438 -31.75 37.453125 -31.75 L 25.734375 -31.75 L 25.734375 0 L 6.21875 0 Z M 25.734375 -47.3125 L 31.234375 -47.3125 C 35.585938 -47.3125 39.164062 -48.191406 41.96875 -49.953125 C 44.769531 -51.710938 46.171875 -54.601562 46.171875 -58.625 C 46.171875 -62.695312 44.769531 -65.613281 41.96875 -67.375 C 39.164062 -69.144531 35.585938 -70.03125 31.234375 -70.03125 L 25.734375 -70.03125 Z M 25.734375 -47.3125 "/></g></g></g><g fill="#fffaeb" fill-opacity="1"><g transform="translate(77.426357, 217.525695)"><g><path d="M 60.078125 -24.0625 L 21.46875 -24.0625 C 21.46875 -20.332031 22.675781 -17.566406 25.09375 -15.765625 C 27.519531 -13.972656 30.15625 -13.078125 33 -13.078125 C 35.96875 -13.078125 38.316406 -13.472656 40.046875 -14.265625 C 41.773438 -15.054688 43.75 -16.628906 45.96875 -18.984375 L 59.234375 -12.34375 C 53.703125 -3.070312 44.503906 1.5625 31.640625 1.5625 C 23.617188 1.5625 16.738281 -1.1875 11 -6.6875 C 5.257812 -12.1875 2.390625 -18.8125 2.390625 -26.5625 C 2.390625 -34.3125 5.257812 -40.953125 11 -46.484375 C 16.738281 -52.015625 23.617188 -54.78125 31.640625 -54.78125 C 40.078125 -54.78125 46.941406 -52.34375 52.234375 -47.46875 C 57.523438 -42.59375 60.171875 -35.625 60.171875 -26.5625 C 60.171875 -25.3125 60.140625 -24.476562 60.078125 -24.0625 Z M 22 -34.234375 L 42.21875 -34.234375 C 41.8125 -37.003906 40.722656 -39.128906 38.953125 -40.609375 C 37.191406 -42.097656 34.925781 -42.84375 32.15625 -42.84375 C 29.113281 -42.84375 26.691406 -42.046875 24.890625 -40.453125 C 23.097656 -38.867188 22.132812 -36.796875 22 -34.234375 Z M 22 -34.234375 "/></g></g></g><g fill="#fffaeb" fill-opacity="1"><g transform="translate(134.797365, 217.525695)"><g><path d="M 9.34375 -53.21875 L 9.34375 -73.046875 L 27.703125 -73.046875 L 27.703125 -53.21875 L 38.90625 -53.21875 L 38.90625 -39.21875 L 27.703125 -39.21875 L 27.703125 -22.3125 C 27.703125 -17.394531 29.082031 -14.9375 31.84375 -14.9375 C 32.539062 -14.9375 33.269531 -15.070312 34.03125 -15.34375 C 34.789062 -15.625 35.378906 -15.90625 35.796875 -16.1875 L 36.421875 -16.59375 L 40.984375 -1.765625 C 37.035156 0.453125 32.539062 1.5625 27.5 1.5625 C 24.039062 1.5625 21.066406 0.957031 18.578125 -0.25 C 16.085938 -1.46875 14.203125 -3.097656 12.921875 -5.140625 C 11.640625 -7.179688 10.722656 -9.320312 10.171875 -11.5625 C 9.617188 -13.8125 9.34375 -16.21875 9.34375 -18.78125 L 9.34375 -39.21875 L 1.65625 -39.21875 L 1.65625 -53.21875 Z M 9.34375 -53.21875 "/></g></g></g><g fill="#fffaeb" fill-opacity="1"><g transform="translate(170.589195, 217.525695)"><g/></g></g><g fill="#fffaeb" fill-opacity="1"><g transform="translate(193.724009, 217.525695)"><g><path d="M 51.765625 -17.640625 C 54.742188 -17.640625 57.632812 -18.085938 60.4375 -18.984375 C 63.238281 -19.878906 65.296875 -20.742188 66.609375 -21.578125 L 68.578125 -22.921875 L 76.875 -6.328125 C 76.601562 -6.117188 76.222656 -5.84375 75.734375 -5.5 C 75.253906 -5.15625 74.128906 -4.515625 72.359375 -3.578125 C 70.597656 -2.640625 68.710938 -1.828125 66.703125 -1.140625 C 64.703125 -0.453125 62.078125 0.164062 58.828125 0.71875 C 55.578125 1.28125 52.222656 1.5625 48.765625 1.5625 C 40.804688 1.5625 33.265625 -0.390625 26.140625 -4.296875 C 19.015625 -8.210938 13.273438 -13.59375 8.921875 -20.4375 C 4.566406 -27.28125 2.390625 -34.679688 2.390625 -42.640625 C 2.390625 -48.660156 3.664062 -54.4375 6.21875 -59.96875 C 8.78125 -65.5 12.1875 -70.234375 16.4375 -74.171875 C 20.695312 -78.117188 25.660156 -81.269531 31.328125 -83.625 C 37.003906 -85.976562 42.816406 -87.15625 48.765625 -87.15625 C 54.296875 -87.15625 59.394531 -86.492188 64.0625 -85.171875 C 68.726562 -83.859375 72.03125 -82.546875 73.96875 -81.234375 L 76.875 -79.265625 L 68.578125 -62.671875 C 68.097656 -63.078125 67.375 -63.570312 66.40625 -64.15625 C 65.4375 -64.75 63.5 -65.53125 60.59375 -66.5 C 57.6875 -67.46875 54.742188 -67.953125 51.765625 -67.953125 C 47.066406 -67.953125 42.847656 -67.191406 39.109375 -65.671875 C 35.378906 -64.148438 32.421875 -62.144531 30.234375 -59.65625 C 28.054688 -57.164062 26.394531 -54.484375 25.25 -51.609375 C 24.113281 -48.742188 23.546875 -45.820312 23.546875 -42.84375 C 23.546875 -36.34375 25.984375 -30.515625 30.859375 -25.359375 C 35.742188 -20.210938 42.710938 -17.640625 51.765625 -17.640625 Z M 51.765625 -17.640625 "/></g></g></g><g fill="#fffaeb" fill-opacity="1"><g transform="translate(266.656926, 217.525695)"><g><path d="M 9.859375 -6.578125 C 4.878906 -12.015625 2.390625 -18.675781 2.390625 -26.5625 C 2.390625 -34.445312 4.878906 -41.117188 9.859375 -46.578125 C 14.835938 -52.046875 21.164062 -54.78125 28.84375 -54.78125 C 35.894531 -54.78125 41.703125 -52.566406 46.265625 -48.140625 L 46.265625 -53.21875 L 64.640625 -53.21875 L 64.640625 0 L 46.484375 0 L 46.484375 -6.015625 L 46.265625 -6.015625 C 41.703125 -0.960938 35.894531 1.5625 28.84375 1.5625 C 21.164062 1.5625 14.835938 -1.148438 9.859375 -6.578125 Z M 25.46875 -35.578125 C 23.082031 -33.234375 21.890625 -30.226562 21.890625 -26.5625 C 21.890625 -22.894531 23.03125 -19.898438 25.3125 -17.578125 C 27.59375 -15.265625 30.601562 -14.109375 34.34375 -14.109375 C 37.9375 -14.109375 40.890625 -15.285156 43.203125 -17.640625 C 45.523438 -19.992188 46.6875 -22.96875 46.6875 -26.5625 C 46.6875 -30.226562 45.492188 -33.234375 43.109375 -35.578125 C 40.722656 -37.929688 37.800781 -39.109375 34.34375 -39.109375 C 30.8125 -39.109375 27.851562 -37.929688 25.46875 -35.578125 Z M 25.46875 -35.578125 "/></g></g></g><g fill="#fffaeb" fill-opacity="1"><g transform="translate(332.327606, 217.525695)"><g><path d="M 6.21875 0 L 6.21875 -53.21875 L 24.59375 -53.21875 L 24.59375 -45.546875 L 24.796875 -45.546875 C 24.929688 -45.828125 25.15625 -46.171875 25.46875 -46.578125 C 25.78125 -46.992188 26.453125 -47.71875 27.484375 -48.75 C 28.523438 -49.789062 29.632812 -50.726562 30.8125 -51.5625 C 31.988281 -52.394531 33.507812 -53.140625 35.375 -53.796875 C 37.25 -54.453125 39.148438 -54.78125 41.078125 -54.78125 C 43.085938 -54.78125 45.0625 -54.503906 47 -53.953125 C 48.9375 -53.398438 50.351562 -52.847656 51.25 -52.296875 L 52.703125 -51.453125 L 45.03125 -35.890625 C 42.75 -37.828125 39.566406 -38.796875 35.484375 -38.796875 C 33.265625 -38.796875 31.359375 -38.3125 29.765625 -37.34375 C 28.179688 -36.375 27.0625 -35.195312 26.40625 -33.8125 C 25.75 -32.4375 25.28125 -31.265625 25 -30.296875 C 24.726562 -29.328125 24.59375 -28.566406 24.59375 -28.015625 L 24.59375 0 Z M 6.21875 0 "/></g></g></g><g fill="#fffaeb" fill-opacity="1"><g transform="translate(378.805264, 217.525695)"><g><path d="M 60.078125 -24.0625 L 21.46875 -24.0625 C 21.46875 -20.332031 22.675781 -17.566406 25.09375 -15.765625 C 27.519531 -13.972656 30.15625 -13.078125 33 -13.078125 C 35.96875 -13.078125 38.316406 -13.472656 40.046875 -14.265625 C 41.773438 -15.054688 43.75 -16.628906 45.96875 -18.984375 L 59.234375 -12.34375 C 53.703125 -3.070312 44.503906 1.5625 31.640625 1.5625 C 23.617188 1.5625 16.738281 -1.1875 11 -6.6875 C 5.257812 -12.1875 2.390625 -18.8125 2.390625 -26.5625 C 2.390625 -34.3125 5.257812 -40.953125 11 -46.484375 C 16.738281 -52.015625 23.617188 -54.78125 31.640625 -54.78125 C 40.078125 -54.78125 46.941406 -52.34375 52.234375 -47.46875 C 57.523438 -42.59375 60.171875 -35.625 60.171875 -26.5625 C 60.171875 -25.3125 60.140625 -24.476562 60.078125 -24.0625 Z M 22 -34.234375 L 42.21875 -34.234375 C 41.8125 -37.003906 40.722656 -39.128906 38.953125 -40.609375 C 37.191406 -42.097656 34.925781 -42.84375 32.15625 -42.84375 C 29.113281 -42.84375 26.691406 -42.046875 24.890625 -40.453125 C 23.097656 -38.867188 22.132812 -36.796875 22 -34.234375 Z M 22 -34.234375 "/></g></g></g><g clip-path="url(#519b3e24f9)"><g clip-path="url(#9a99de2007)"><g clip-path="url(#5a092323a3)"><path fill="#fffaeb" d="M 213.183594 140.304688 L 215.597656 125.234375 L 227.441406 134.863281 Z M 213.183594 140.304688 " fill-opacity="1" fill-rule="nonzero"/></g></g></g><g clip-path="url(#549c8f4ad6)"><g clip-path="url(#b0d12a6cef)"><g clip-path="url(#032b13dc44)"><path fill="#fffaeb" d="M 241.824219 132.734375 L 251.492188 120.925781 L 256.886719 135.203125 Z M 241.824219 132.734375 " fill-opacity="1" fill-rule="nonzero"/></g></g></g></svg>