<svg xmlns="http://www.w3.org/2000/svg" xmlns:xlink="http://www.w3.org/1999/xlink" width="500" zoomAndPan="magnify" viewBox="0 0 375 374.999991" height="500" preserveAspectRatio="xMidYMid meet" version="1.0"><defs><g/><clipPath id="4e9b720cf3"><path d="M 82 122 L 317.988281 122 L 317.988281 275.214844 L 82 275.214844 Z M 82 122 " clip-rule="nonzero"/></clipPath><clipPath id="5981dedc59"><path d="M 298 169 L 317.988281 169 L 317.988281 190 L 298 190 Z M 298 169 " clip-rule="nonzero"/></clipPath><clipPath id="c5e6596b52"><path d="M 82 24.507812 L 305 24.507812 L 305 163 L 82 163 Z M 82 24.507812 " clip-rule="nonzero"/></clipPath></defs><g clip-path="url(#4e9b720cf3)"><path fill="#000000" d="M 187.589844 148.9375 C 184.304688 147.269531 180.753906 145.882812 176.929688 144.773438 C 176.175781 144.554688 175.367188 144.625 174.660156 144.964844 C 174.660156 144.964844 165.535156 149.21875 157.332031 163.101562 C 156.953125 162.871094 156.546875 162.644531 156.117188 162.425781 C 151.714844 160.191406 144.039062 158.386719 134.050781 158.386719 C 124.0625 158.386719 116.390625 160.191406 111.988281 162.425781 C 111.558594 162.644531 111.152344 162.871094 110.773438 163.101562 C 102.570312 149.21875 93.445312 144.964844 93.445312 144.964844 C 92.203125 144.367188 90.71875 144.632812 89.761719 145.628906 C 89.761719 145.628906 82.566406 152.542969 82.566406 180.101562 C 82.566406 180.101562 82.566406 271.941406 82.566406 271.941406 C 82.566406 273.710938 83.996094 275.144531 85.761719 275.144531 L 301.605469 275.144531 C 303.371094 275.144531 304.804688 273.710938 304.804688 271.941406 L 304.804688 236.378906 C 304.804688 234.613281 303.371094 233.179688 301.605469 233.179688 C 299.84375 233.179688 298.410156 234.613281 298.410156 236.378906 L 298.410156 268.742188 C 298.410156 268.742188 88.957031 268.742188 88.957031 268.742188 C 88.957031 268.742188 88.957031 180.101562 88.957031 180.101562 C 88.957031 163.777344 91.484375 155.738281 93.082031 152.285156 C 96.25 154.613281 102.011719 159.816406 107.070312 169.613281 C 107.605469 170.65625 108.667969 171.316406 109.835938 171.34375 C 111.007812 171.371094 112.097656 170.753906 112.679688 169.738281 C 113.191406 168.84375 114.601562 168.15625 116.535156 167.40625 C 120.527344 165.855469 126.554688 164.789062 134.050781 164.789062 C 141.550781 164.789062 147.578125 165.855469 151.570312 167.40625 C 153.503906 168.15625 154.914062 168.84375 155.425781 169.738281 C 156.007812 170.753906 157.097656 171.371094 158.265625 171.34375 C 159.4375 171.316406 160.5 170.65625 161.035156 169.613281 C 166.984375 158.085938 173.910156 152.917969 176.441406 151.316406 C 179.058594 152.136719 181.519531 153.113281 183.835938 154.242188 C 172.226562 171.921875 165.070312 195.699219 165.070312 221.851562 C 165.070312 237.03125 177.371094 249.351562 192.519531 249.351562 C 207.671875 249.351562 219.972656 237.03125 219.972656 221.851562 C 219.972656 187.867188 211.636719 164.628906 193.152344 152.195312 C 194.710938 150.1875 196.347656 148.289062 198.046875 146.507812 C 208.503906 135.515625 221.371094 128.945312 235.324219 128.945312 C 257.0625 128.945312 274.933594 143.804688 274.933594 162.441406 C 274.933594 165.210938 276.734375 168.105469 280.582031 170.40625 C 286.53125 173.960938 298.054688 176.59375 311.566406 176.957031 C 311.566406 176.957031 311.566406 184.851562 311.566406 184.851562 L 311.566406 185.15625 C 311.566406 203.640625 296.582031 218.648438 278.128906 218.648438 C 259.675781 218.648438 244.695312 203.640625 244.695312 185.15625 C 244.695312 183.386719 243.261719 181.953125 241.496094 181.953125 C 239.734375 181.953125 238.300781 183.386719 238.300781 185.15625 C 238.300781 207.175781 256.148438 225.054688 278.128906 225.054688 C 300.113281 225.054688 317.957031 207.175781 317.957031 185.15625 C 317.957031 185.085938 317.957031 185.019531 317.957031 184.953125 L 317.957031 173.796875 C 317.957031 172.027344 316.527344 170.597656 314.761719 170.597656 C 303.144531 170.597656 292.832031 168.898438 286.445312 166.195312 C 284.628906 165.429688 283.164062 164.605469 282.171875 163.683594 C 281.722656 163.261719 281.324219 162.90625 281.324219 162.441406 C 281.324219 140.566406 260.839844 122.542969 235.324219 122.542969 C 219.667969 122.542969 205.15625 129.753906 193.417969 142.089844 C 191.386719 144.222656 189.441406 146.507812 187.589844 148.9375 Z M 189.386719 157.425781 C 178.253906 174.1875 171.460938 196.890625 171.460938 221.851562 C 171.460938 233.496094 180.898438 242.949219 192.519531 242.949219 C 204.144531 242.949219 213.578125 233.496094 213.578125 221.851562 C 213.578125 190.492188 206.398438 168.824219 189.386719 157.425781 Z M 189.386719 157.425781 " fill-opacity="1" fill-rule="evenodd"/></g><g clip-path="url(#5981dedc59)"><path fill="#000000" d="M 314.761719 183.125 C 309.265625 183.125 304.804688 178.65625 304.804688 173.148438 C 304.804688 171.382812 303.371094 169.949219 301.605469 169.949219 C 299.84375 169.949219 298.410156 171.382812 298.410156 173.148438 C 298.410156 182.191406 305.738281 189.53125 314.761719 189.53125 C 316.527344 189.53125 317.957031 188.09375 317.957031 186.328125 C 317.957031 184.5625 316.527344 183.125 314.761719 183.125 Z M 314.761719 183.125 " fill-opacity="1" fill-rule="evenodd"/></g><path fill="#000000" d="M 146.210938 209.898438 C 146.210938 212.628906 143.996094 214.847656 141.269531 214.847656 C 138.542969 214.847656 136.328125 212.628906 136.328125 209.898438 C 136.328125 208.132812 134.894531 206.695312 133.132812 206.695312 C 131.367188 206.695312 129.9375 208.132812 129.9375 209.898438 C 129.9375 216.164062 135.015625 221.25 141.269531 221.25 C 147.523438 221.25 152.601562 216.164062 152.601562 209.898438 C 152.601562 208.132812 151.167969 206.695312 149.40625 206.695312 C 147.640625 206.695312 146.210938 208.132812 146.210938 209.898438 Z M 146.210938 209.898438 " fill-opacity="1" fill-rule="evenodd"/><path fill="#000000" d="M 129.9375 209.898438 C 129.9375 212.628906 127.722656 214.847656 124.996094 214.847656 C 122.269531 214.847656 120.054688 212.628906 120.054688 209.898438 C 120.054688 208.132812 118.621094 206.695312 116.859375 206.695312 C 115.09375 206.695312 113.660156 208.132812 113.660156 209.898438 C 113.660156 216.164062 118.738281 221.25 124.996094 221.25 C 131.25 221.25 136.328125 216.164062 136.328125 209.898438 C 136.328125 208.132812 134.894531 206.695312 133.132812 206.695312 C 131.367188 206.695312 129.9375 208.132812 129.9375 209.898438 Z M 129.9375 209.898438 " fill-opacity="1" fill-rule="evenodd"/><path fill="#000000" d="M 173.425781 102.125 C 180.609375 114.589844 192.507812 116.628906 201.910156 114.34375 C 202.503906 114.199219 203.046875 113.886719 203.46875 113.441406 C 210.148438 106.425781 214.332031 95.085938 207.148438 82.621094 C 204.019531 77.195312 197.085938 75.332031 191.667969 78.464844 C 189.464844 79.742188 187.996094 81.304688 187.125 83.167969 C 186.78125 83.910156 186.527344 84.714844 186.375 85.585938 C 185.546875 85.28125 184.726562 85.097656 183.910156 85.027344 C 181.863281 84.851562 179.777344 85.34375 177.574219 86.617188 C 172.15625 89.75 170.296875 96.699219 173.425781 102.125 Z M 178.960938 98.925781 C 184.136719 107.902344 192.558594 109.695312 199.480469 108.324219 C 204.125 103.003906 206.789062 94.800781 201.613281 85.824219 C 200.25 83.457031 197.226562 82.644531 194.863281 84.011719 C 193.953125 84.539062 193.277344 85.113281 192.917969 85.882812 C 192.265625 87.269531 192.574219 89.039062 193.328125 91.394531 C 193.792969 92.828125 193.191406 94.394531 191.886719 95.148438 C 190.582031 95.902344 188.929688 95.640625 187.917969 94.523438 C 186.261719 92.6875 184.886719 91.539062 183.359375 91.410156 C 182.515625 91.335938 181.679688 91.636719 180.769531 92.164062 C 178.410156 93.53125 177.597656 96.558594 178.960938 98.925781 Z M 178.960938 98.925781 " fill-opacity="1" fill-rule="evenodd"/><path fill="#000000" d="M 299.714844 215.574219 C 300.917969 217.660156 300.203125 220.335938 298.121094 221.539062 C 296.035156 222.746094 293.367188 222.03125 292.164062 219.941406 C 291.28125 218.410156 289.324219 217.886719 287.796875 218.769531 C 286.269531 219.652344 285.746094 221.613281 286.625 223.144531 C 289.59375 228.292969 296.175781 230.058594 301.316406 227.085938 C 306.453125 224.113281 308.21875 217.519531 305.25 212.371094 C 304.371094 210.839844 302.414062 210.316406 300.886719 211.199219 C 299.359375 212.082031 298.832031 214.042969 299.714844 215.574219 Z M 299.714844 215.574219 " fill-opacity="1" fill-rule="evenodd"/><g clip-path="url(#c5e6596b52)"><path fill="#000000" d="M 304.800781 159.605469 L 304.800781 101.808594 C 304.800781 100.730469 304.261719 99.726562 303.363281 99.132812 L 191.097656 25.175781 C 189.996094 24.449219 188.5625 24.472656 187.488281 25.242188 L 83.910156 99.203125 C 82.472656 100.226562 82.136719 102.230469 83.160156 103.667969 C 84.183594 105.105469 86.179688 105.441406 87.617188 104.417969 L 189.414062 31.730469 C 189.414062 31.730469 298.410156 103.535156 298.410156 103.535156 C 298.410156 103.535156 298.410156 159.605469 298.410156 159.605469 C 298.410156 161.371094 299.84375 162.804688 301.605469 162.804688 C 303.371094 162.804688 304.800781 161.371094 304.800781 159.605469 Z M 304.800781 159.605469 " fill-opacity="1" fill-rule="evenodd"/></g><path fill="#000000" d="M 82.566406 101.808594 L 82.566406 137.832031 C 82.566406 139.601562 84 141.035156 85.761719 141.035156 C 87.527344 141.035156 88.957031 139.601562 88.957031 137.832031 L 88.957031 101.808594 C 88.957031 100.042969 87.527344 98.609375 85.761719 98.609375 C 84 98.609375 82.566406 100.042969 82.566406 101.808594 Z M 82.566406 101.808594 " fill-opacity="1" fill-rule="evenodd"/><path fill="#000000" d="M 98.171875 195.234375 L 60.664062 191.265625 C 58.910156 191.078125 57.332031 192.355469 57.148438 194.113281 C 56.960938 195.867188 58.238281 197.445312 59.992188 197.632812 L 97.5 201.601562 C 99.253906 201.789062 100.828125 200.511719 101.015625 198.753906 C 101.199219 196.996094 99.925781 195.421875 98.171875 195.234375 Z M 98.171875 195.234375 " fill-opacity="1" fill-rule="evenodd"/><path fill="#000000" d="M 96.933594 211.226562 L 59.425781 222.257812 C 57.734375 222.753906 56.761719 224.535156 57.257812 226.230469 C 57.757812 227.925781 59.535156 228.898438 61.226562 228.402344 L 98.734375 217.371094 C 100.425781 216.875 101.398438 215.09375 100.902344 213.398438 C 100.40625 211.703125 98.628906 210.730469 96.933594 211.226562 Z M 96.933594 211.226562 " fill-opacity="1" fill-rule="evenodd"/><g fill="#000000" fill-opacity="1"><g transform="translate(90.197005, 334.535412)"><g><path d="M 2.953125 -40.5 L 17.71875 -40.5 C 21.84375 -40.5 25.179688 -39.4375 27.734375 -37.3125 C 30.285156 -35.1875 31.5625 -32.09375 31.5625 -28.03125 C 31.5625 -23.96875 30.269531 -20.78125 27.6875 -18.46875 C 25.101562 -16.164062 21.78125 -15.015625 17.71875 -15.015625 L 12.171875 -15.015625 L 12.171875 0 L 2.953125 0 Z M 12.171875 -22.390625 L 14.78125 -22.390625 C 16.84375 -22.390625 18.535156 -22.804688 19.859375 -23.640625 C 21.179688 -24.472656 21.84375 -25.835938 21.84375 -27.734375 C 21.84375 -29.671875 21.179688 -31.054688 19.859375 -31.890625 C 18.535156 -32.722656 16.84375 -33.140625 14.78125 -33.140625 L 12.171875 -33.140625 Z M 12.171875 -22.390625 "/></g></g></g><g fill="#000000" fill-opacity="1"><g transform="translate(120.44331, 334.535412)"><g><path d="M 28.421875 -11.390625 L 10.15625 -11.390625 C 10.15625 -9.617188 10.726562 -8.304688 11.875 -7.453125 C 13.019531 -6.609375 14.265625 -6.1875 15.609375 -6.1875 C 17.015625 -6.1875 18.125 -6.375 18.9375 -6.75 C 19.757812 -7.125 20.695312 -7.867188 21.75 -8.984375 L 28.03125 -5.84375 C 25.414062 -1.457031 21.0625 0.734375 14.96875 0.734375 C 11.175781 0.734375 7.921875 -0.5625 5.203125 -3.15625 C 2.484375 -5.757812 1.125 -8.894531 1.125 -12.5625 C 1.125 -16.226562 2.484375 -19.367188 5.203125 -21.984375 C 7.921875 -24.609375 11.175781 -25.921875 14.96875 -25.921875 C 18.96875 -25.921875 22.21875 -24.765625 24.71875 -22.453125 C 27.21875 -20.148438 28.46875 -16.851562 28.46875 -12.5625 C 28.46875 -11.976562 28.453125 -11.585938 28.421875 -11.390625 Z M 10.40625 -16.203125 L 19.984375 -16.203125 C 19.785156 -17.515625 19.269531 -18.519531 18.4375 -19.21875 C 17.601562 -19.925781 16.53125 -20.28125 15.21875 -20.28125 C 13.78125 -20.28125 12.632812 -19.898438 11.78125 -19.140625 C 10.925781 -18.390625 10.46875 -17.410156 10.40625 -16.203125 Z M 10.40625 -16.203125 "/></g></g></g><g fill="#000000" fill-opacity="1"><g transform="translate(147.596243, 334.535412)"><g><path d="M 4.421875 -25.1875 L 4.421875 -34.5625 L 13.109375 -34.5625 L 13.109375 -25.1875 L 18.40625 -25.1875 L 18.40625 -18.5625 L 13.109375 -18.5625 L 13.109375 -10.5625 C 13.109375 -8.226562 13.765625 -7.0625 15.078125 -7.0625 C 15.398438 -7.0625 15.738281 -7.128906 16.09375 -7.265625 C 16.457031 -7.398438 16.738281 -7.53125 16.9375 -7.65625 L 17.234375 -7.859375 L 19.390625 -0.828125 C 17.523438 0.210938 15.398438 0.734375 13.015625 0.734375 C 11.378906 0.734375 9.96875 0.445312 8.78125 -0.125 C 7.601562 -0.695312 6.710938 -1.460938 6.109375 -2.421875 C 5.503906 -3.390625 5.070312 -4.40625 4.8125 -5.46875 C 4.550781 -6.53125 4.421875 -7.671875 4.421875 -8.890625 L 4.421875 -18.5625 L 0.78125 -18.5625 L 0.78125 -25.1875 Z M 4.421875 -25.1875 "/></g></g></g><g fill="#000000" fill-opacity="1"><g transform="translate(164.536143, 334.535412)"><g/></g></g><g fill="#000000" fill-opacity="1"><g transform="translate(175.485701, 334.535412)"><g><path d="M 24.5 -8.34375 C 25.90625 -8.34375 27.269531 -8.554688 28.59375 -8.984375 C 29.914062 -9.410156 30.890625 -9.820312 31.515625 -10.21875 L 32.453125 -10.84375 L 36.375 -3 C 36.25 -2.894531 36.070312 -2.757812 35.84375 -2.59375 C 35.613281 -2.4375 35.078125 -2.132812 34.234375 -1.6875 C 33.398438 -1.25 32.507812 -0.863281 31.5625 -0.53125 C 30.613281 -0.207031 29.367188 0.0820312 27.828125 0.34375 C 26.296875 0.601562 24.710938 0.734375 23.078125 0.734375 C 19.304688 0.734375 15.734375 -0.1875 12.359375 -2.03125 C 8.992188 -3.882812 6.28125 -6.429688 4.21875 -9.671875 C 2.15625 -12.910156 1.125 -16.410156 1.125 -20.171875 C 1.125 -23.023438 1.726562 -25.757812 2.9375 -28.375 C 4.15625 -30.988281 5.769531 -33.226562 7.78125 -35.09375 C 9.789062 -36.96875 12.140625 -38.457031 14.828125 -39.5625 C 17.515625 -40.675781 20.265625 -41.234375 23.078125 -41.234375 C 25.691406 -41.234375 28.101562 -40.921875 30.3125 -40.296875 C 32.519531 -39.679688 34.082031 -39.0625 35 -38.4375 L 36.375 -37.5 L 32.453125 -29.65625 C 32.222656 -29.851562 31.878906 -30.085938 31.421875 -30.359375 C 30.960938 -30.640625 30.046875 -31.007812 28.671875 -31.46875 C 27.296875 -31.925781 25.90625 -32.15625 24.5 -32.15625 C 22.269531 -32.15625 20.269531 -31.796875 18.5 -31.078125 C 16.738281 -30.359375 15.34375 -29.410156 14.3125 -28.234375 C 13.28125 -27.054688 12.492188 -25.785156 11.953125 -24.421875 C 11.410156 -23.066406 11.140625 -21.6875 11.140625 -20.28125 C 11.140625 -17.195312 12.289062 -14.4375 14.59375 -12 C 16.90625 -9.5625 20.207031 -8.34375 24.5 -8.34375 Z M 24.5 -8.34375 "/></g></g></g><g fill="#000000" fill-opacity="1"><g transform="translate(210.003805, 334.535412)"><g><path d="M 4.65625 -3.109375 C 2.300781 -5.679688 1.125 -8.832031 1.125 -12.5625 C 1.125 -16.300781 2.300781 -19.460938 4.65625 -22.046875 C 7.019531 -24.628906 10.015625 -25.921875 13.640625 -25.921875 C 16.984375 -25.921875 19.734375 -24.875 21.890625 -22.78125 L 21.890625 -25.1875 L 30.578125 -25.1875 L 30.578125 0 L 22 0 L 22 -2.84375 L 21.890625 -2.84375 C 19.734375 -0.457031 16.984375 0.734375 13.640625 0.734375 C 10.015625 0.734375 7.019531 -0.546875 4.65625 -3.109375 Z M 12.046875 -16.84375 C 10.921875 -15.726562 10.359375 -14.300781 10.359375 -12.5625 C 10.359375 -10.832031 10.894531 -9.414062 11.96875 -8.3125 C 13.050781 -7.21875 14.476562 -6.671875 16.25 -6.671875 C 17.945312 -6.671875 19.34375 -7.226562 20.4375 -8.34375 C 21.539062 -9.457031 22.09375 -10.863281 22.09375 -12.5625 C 22.09375 -14.300781 21.523438 -15.726562 20.390625 -16.84375 C 19.265625 -17.957031 17.882812 -18.515625 16.25 -18.515625 C 14.582031 -18.515625 13.179688 -17.957031 12.046875 -16.84375 Z M 12.046875 -16.84375 "/></g></g></g><g fill="#000000" fill-opacity="1"><g transform="translate(241.084825, 334.535412)"><g><path d="M 2.953125 0 L 2.953125 -25.1875 L 11.640625 -25.1875 L 11.640625 -21.546875 L 11.734375 -21.546875 C 11.796875 -21.679688 11.898438 -21.847656 12.046875 -22.046875 C 12.191406 -22.242188 12.507812 -22.585938 13 -23.078125 C 13.5 -23.566406 14.023438 -24.003906 14.578125 -24.390625 C 15.140625 -24.785156 15.859375 -25.140625 16.734375 -25.453125 C 17.617188 -25.765625 18.519531 -25.921875 19.4375 -25.921875 C 20.382812 -25.921875 21.316406 -25.789062 22.234375 -25.53125 C 23.148438 -25.269531 23.820312 -25.007812 24.25 -24.75 L 24.9375 -24.34375 L 21.3125 -16.984375 C 20.226562 -17.898438 18.722656 -18.359375 16.796875 -18.359375 C 15.742188 -18.359375 14.835938 -18.128906 14.078125 -17.671875 C 13.328125 -17.210938 12.796875 -16.65625 12.484375 -16 C 12.179688 -15.34375 11.960938 -14.785156 11.828125 -14.328125 C 11.703125 -13.867188 11.640625 -13.507812 11.640625 -13.25 L 11.640625 0 Z M 2.953125 0 "/></g></g></g><g fill="#000000" fill-opacity="1"><g transform="translate(263.082133, 334.535412)"><g><path d="M 28.421875 -11.390625 L 10.15625 -11.390625 C 10.15625 -9.617188 10.726562 -8.304688 11.875 -7.453125 C 13.019531 -6.609375 14.265625 -6.1875 15.609375 -6.1875 C 17.015625 -6.1875 18.125 -6.375 18.9375 -6.75 C 19.757812 -7.125 20.695312 -7.867188 21.75 -8.984375 L 28.03125 -5.84375 C 25.414062 -1.457031 21.0625 0.734375 14.96875 0.734375 C 11.175781 0.734375 7.921875 -0.5625 5.203125 -3.15625 C 2.484375 -5.757812 1.125 -8.894531 1.125 -12.5625 C 1.125 -16.226562 2.484375 -19.367188 5.203125 -21.984375 C 7.921875 -24.609375 11.175781 -25.921875 14.96875 -25.921875 C 18.96875 -25.921875 22.21875 -24.765625 24.71875 -22.453125 C 27.21875 -20.148438 28.46875 -16.851562 28.46875 -12.5625 C 28.46875 -11.976562 28.453125 -11.585938 28.421875 -11.390625 Z M 10.40625 -16.203125 L 19.984375 -16.203125 C 19.785156 -17.515625 19.269531 -18.519531 18.4375 -19.21875 C 17.601562 -19.925781 16.53125 -20.28125 15.21875 -20.28125 C 13.78125 -20.28125 12.632812 -19.898438 11.78125 -19.140625 C 10.925781 -18.390625 10.46875 -17.410156 10.40625 -16.203125 Z M 10.40625 -16.203125 "/></g></g></g></svg>